2.8Hzlow_3min_grf.mot
version=1
nRows=10
nColumns 19
inDegrees=yes
endheader
time	1_ground_force_vx	1_ground_force_vy	1_ground_force_vz	1_ground_force_px	1_ground_force_py	1_ground_force_pz	1_ground_torque_x	1_ground_torque_y	1_ground_torque_z	2_ground_force_vx	2_ground_force_vy	2_ground_force_vz	2_ground_force_px	2_ground_force_py	2_ground_force_pz	2_ground_torque_x	2_ground_torque_y	2_ground_torque_z
            2.502500	          -57.850114	          110.349369	           -8.233666	           -0.164814	            0.006378	           -0.438510	            0.092309	           -0.176079	            0.013138	           -5.361647	           41.689124	          -25.190468	           -0.103937	            0.006088	           -0.691924	           -0.132772	            1.032360	           -0.623799
            2.503000	          -58.446715	          113.233702	           -8.265675	           -0.165240	            0.006378	           -0.438524	            0.051960	           -0.100666	            0.007348	           -5.990408	           47.209534	          -24.654288	           -0.108955	            0.006090	           -0.697559	           -0.160807	            1.267299	           -0.661823
            2.503500	          -58.217261	          116.296886	           -7.932112	           -0.166044	            0.006381	           -0.439266	           -0.028171	            0.056275	           -0.003838	           -6.375861	           50.154721	          -24.690544	           -0.114756	            0.006077	           -0.699841	           -0.174988	            1.376518	           -0.677643
            2.504000	          -57.486040	          119.364493	           -8.608631	           -0.164569	            0.006384	           -0.440028	           -0.109003	            0.226335	           -0.016323	           -7.032465	           50.336836	          -24.783464	           -0.112548	            0.006066	           -0.694598	           -0.187134	            1.339465	           -0.659489
            2.504500	          -57.306514	          122.975347	           -9.877593	           -0.163719	            0.006386	           -0.440447	           -0.133629	            0.286757	           -0.023033	           -8.038205	           56.409844	          -24.667507	           -0.116505	            0.006075	           -0.701175	           -0.201114	            1.411361	           -0.617175
            2.505000	          -57.357245	          126.047326	          -11.606863	           -0.163517	            0.006387	           -0.440588	           -0.100159	            0.220109	           -0.020268	           -9.745178	           62.110511	          -24.130212	           -0.120062	            0.006080	           -0.706061	           -0.236550	            1.507645	           -0.585727
            2.505500	          -58.505646	          129.475101	          -12.277171	           -0.166440	            0.006381	           -0.439271	           -0.029267	            0.064768	           -0.006141	          -11.919842	           67.624174	          -23.264877	           -0.126463	            0.006072	           -0.710321	           -0.308678	            1.751206	           -0.602471
            2.506000	          -58.874399	          133.623303	          -12.762898	           -0.165405	            0.006378	           -0.438702	            0.056354	           -0.127904	            0.012217	          -14.568383	           74.609827	          -22.534872	           -0.131547	            0.006066	           -0.713825	           -0.402959	            2.063697	           -0.623311
            2.506500	          -58.187496	          137.048681	          -12.795774	           -0.166118	            0.006374	           -0.437618	            0.085057	           -0.200334	            0.018705	          -16.425313	           82.888892	          -22.222958	           -0.132877	            0.006065	           -0.714964	           -0.424630	            2.142856	           -0.574511
            2.507000	          -56.949077	          140.291539	          -12.280518	           -0.166602	            0.006377	           -0.438453	            0.067690	           -0.166750	            0.014597	          -17.861862	           91.537290	          -21.769126	           -0.132823	            0.006070	           -0.716120	           -0.423310	            2.169349	           -0.515908
